# xmcd CD database file
#
# Track frame offsets:
#	150
#	11525
#	26075
#	40050
#	57337
#	81250
#	95525
#	118700
#	133112
#	150400
#	166387
#	178500
#	195737
#	211687
#	235162
#	260957
#	279970
#
# Disc length: 3943 seconds
#
# Revision: 2
# Processed by: cddbd v1.4PL0 Copyright (c) Steve Scherf et al.
# Submitted via: CDex 1.40Release
#
DISCID=e40f6511
DTITLE=Hubert Sumlin - Blues Anytime
DYEAR=1900
DGENRE=Blues
TTITLE0=IT'S YOU MY BABY
TTITLE1=LOVE YOU, WOMAN
TTITLE2=EVERYTIME I GET TO DRINKING
TTITLE3=WHEN I FEEL BETTER
TTITLE4=BLUES ANYTIME
TTITLE5=I LOVE
TTITLE6=LEAVY CAMP MOAN
TTITLE7=MY BABE
TTITLE8=HUBERT'S BLUES
TTITLE9=WE GONNA JUMP
TTITLE10=BIG LEGGED WOMAN
TTITLE11=TOO LATE FOR ME TO PRAY
TTITLE12=MABON'S BOOGIE
TTITLE13=I DON'T KNOW
TTITLE14=WOODCHOPPING BLUES
TTITLE15=I LOVE
TTITLE16=EVERYTHING I DO GONNA BE FUNKY
EXTD=ID3G: 0
EXTT0=
EXTT1=
EXTT2=
EXTT3=
EXTT4=
EXTT5=
EXTT6=
EXTT7=
EXTT8=
EXTT9=
EXTT10=
EXTT11=
EXTT12=
EXTT13=
EXTT14=
EXTT15=
EXTT16=
PLAYORDER=
